<?xml version="1.0" standalone="no"?>
<!DOCTYPE svg PUBLIC "-//W3C//DTD SVG 20010904//EN"
 "http://www.w3.org/TR/2001/REC-SVG-20010904/DTD/svg10.dtd">
<svg version="1.0" xmlns="http://www.w3.org/2000/svg"
 width="512.000000pt" height="512.000000pt" viewBox="0 0 512.000000 512.000000"
 preserveAspectRatio="xMidYMid meet">
<metadata>
Created by potrace 1.11, written by Peter Selinger 2001-2013
</metadata>
<g transform="translate(0.000000,512.000000) scale(0.100000,-0.100000)"
fill="#000000" stroke="none">
<path d="M2690 4693 c-47 -15 -97 -27 -112 -27 -14 -1 -24 -4 -22 -7 2 -4
-195 -72 -439 -152 -243 -80 -633 -209 -867 -286 -388 -127 -610 -207 -808
-289 -186 -77 -315 -179 -372 -295 -53 -108 -64 -184 -64 -447 -1 -377 8 -426
101 -525 115 -124 147 -161 263 -305 47 -58 88 -107 91 -110 3 -3 52 -63 110
-135 57 -71 106 -132 109 -135 3 -3 59 -72 125 -155 113 -140 367 -456 404
-500 9 -11 70 -88 136 -170 344 -432 540 -641 680 -726 89 -54 278 -20 698
127 70 25 133 42 140 38 7 -4 9 -4 5 1 -4 4 50 30 120 58 70 27 142 55 160 63
18 8 36 13 41 9 5 -3 11 -1 13 4 3 9 373 155 553 218 39 13 97 35 130 48 33
14 249 95 480 180 486 181 546 205 636 252 86 44 110 71 116 126 5 42 3 46
-53 108 -33 35 -66 69 -74 76 -8 6 -33 27 -55 47 -22 20 -77 66 -122 103 l-83
68 5 63 c15 187 21 243 27 246 2 0 38 18 80 39 81 40 113 74 103 108 -6 19
-91 148 -104 159 -3 3 -26 30 -51 60 -25 30 -49 60 -55 66 -5 6 -30 35 -55 64
-25 29 -56 65 -70 80 -14 16 -63 70 -110 121 -93 103 -202 218 -381 404 -64
66 -139 143 -165 171 -97 102 -293 310 -319 339 -33 36 -205 221 -255 273 -19
21 -107 114 -195 207 -253 269 -354 365 -384 364 -14 0 -64 -12 -111 -26z
m156 -190 c89 -103 176 -208 184 -223 7 -13 3 -15 -26 -12 -18 2 -32 7 -30 11
2 3 -25 7 -60 9 -56 2 -64 0 -64 -16 0 -35 23 -50 90 -56 170 -15 186 -21 231
-77 l33 -42 -39 6 c-128 22 -185 30 -190 25 -3 -2 0 -18 5 -35 10 -28 17 -31
83 -43 89 -17 80 -15 150 -30 51 -10 67 -20 128 -77 38 -36 68 -68 65 -70 -2
-2 -57 5 -123 17 -148 25 -141 25 -136 -5 7 -35 22 -44 84 -51 30 -3 57 -8 60
-10 4 -2 28 -6 55 -9 27 -3 56 -8 64 -10 8 -2 31 -7 50 -10 36 -6 78 -41 133
-109 l31 -39 -50 7 c-27 4 -80 14 -119 21 -131 26 -165 29 -165 14 1 -23 26
-49 51 -54 45 -9 134 -25 174 -31 134 -20 176 -33 213 -62 21 -17 45 -38 52
-47 12 -14 11 -16 -11 -11 -13 3 -82 15 -154 26 -71 12 -140 26 -151 30 -18 7
-21 5 -17 -10 13 -49 48 -62 293 -106 114 -20 137 -36 259 -176 l32 -36 -53
14 c-29 8 -64 16 -78 19 -14 3 -68 16 -120 29 -52 13 -96 20 -98 15 -2 -5 1
-24 7 -42 11 -33 14 -34 129 -62 64 -16 122 -30 127 -32 190 -47 198 -51 255
-111 89 -94 141 -154 136 -159 -2 -2 -75 15 -162 38 -88 23 -177 45 -199 50
-22 5 -58 13 -80 19 -54 13 -52 14 -57 -20 -3 -16 -2 -28 0 -25 3 2 13 -7 24
-20 10 -14 22 -24 26 -23 4 1 32 -4 62 -11 30 -7 64 -14 75 -17 116 -23 408
-96 422 -105 20 -12 84 -92 78 -97 -2 -2 -72 12 -157 32 -347 79 -366 80 -337
20 13 -26 25 -30 304 -93 l290 -67 70 -67 c69 -66 69 -67 48 -82 -24 -17 -58
-14 -126 11 -23 8 -49 17 -57 19 -26 6 -344 104 -374 114 -34 12 -46 2 -46
-40 0 -29 -23 -20 320 -127 l125 -38 -98 -33 -98 -33 -77 30 c-113 45 -128 48
-141 24 -21 -40 -13 -60 32 -80 42 -19 42 -19 17 -30 -21 -9 -1266 -421 -1295
-428 -5 -2 -91 -32 -190 -67 -505 -181 -745 -308 -857 -457 -35 -46 -83 -144
-97 -197 -6 -23 -13 -76 -15 -118 -2 -42 -6 -78 -8 -80 -2 -2 -62 68 -133 156
-138 170 -150 185 -196 238 -16 18 -26 38 -23 43 3 4 1 7 -4 6 -5 -2 -44 40
-86 92 -42 52 -93 115 -114 139 -20 24 -44 54 -52 65 -8 12 -50 64 -93 116
-43 52 -86 104 -95 115 -233 286 -462 564 -567 691 -73 88 -147 185 -163 215
-79 139 -102 472 -46 665 33 114 138 246 264 329 120 79 210 116 545 225 121
39 452 148 735 242 283 93 521 172 530 174 8 2 123 39 255 83 132 44 249 80
261 80 14 1 38 -19 70 -56z m1839 -2295 c-4 -58 -22 -263 -29 -343 -3 -27 -8
-81 -11 -120 -11 -137 -7 -129 -88 -160 -39 -15 -133 -52 -207 -81 -74 -29
-225 -87 -335 -129 -110 -42 -262 -101 -338 -131 -76 -30 -139 -54 -142 -54
-2 0 -16 -5 -32 -12 -15 -6 -32 -12 -38 -14 -5 -2 -104 -40 -220 -84 -115 -45
-257 -99 -315 -120 -58 -22 -148 -56 -200 -76 -102 -39 -161 -61 -480 -177
-235 -86 -220 -87 -270 17 -58 123 -66 287 -20 381 71 143 330 317 680 455
140 56 924 317 1680 560 140 45 278 90 305 100 28 10 53 18 56 19 3 1 5 -14 4
-31z m153 -524 c61 -58 112 -111 112 -118 0 -14 -5 -16 -645 -258 -247 -93
-457 -172 -465 -175 -8 -4 -17 -7 -20 -8 -3 -1 -18 -7 -35 -14 -16 -7 -91 -35
-165 -63 -74 -27 -142 -52 -150 -55 -8 -4 -17 -7 -20 -8 -3 -1 -16 -6 -30 -12
-61 -25 -814 -304 -895 -331 -103 -35 -204 -62 -255 -69 -39 -5 -100 4 -100
15 0 4 31 17 68 28 120 39 600 209 912 324 107 40 229 84 270 100 81 29 319
124 575 227 173 70 178 72 245 102 25 10 86 36 135 56 185 76 299 132 322 157
13 14 17 38 17 113 0 52 2 95 6 95 3 0 56 -48 118 -106z"/>
<path d="M1960 3879 c-96 -33 -183 -63 -192 -66 -10 -3 -18 -9 -18 -12 0 -7
80 -125 182 -272 30 -42 35 -56 25 -66 -6 -6 -93 -39 -191 -72 -99 -33 -183
-64 -188 -69 -19 -19 219 -312 252 -312 4 0 74 23 156 51 82 28 154 52 159 53
6 2 19 6 30 10 11 5 32 12 47 18 15 5 31 7 37 4 11 -7 241 -293 241 -300 0 -3
12 -18 26 -33 14 -15 72 -86 127 -158 56 -71 106 -135 112 -142 5 -6 30 -37
55 -69 25 -31 66 -79 91 -105 49 -52 59 -55 174 -50 74 3 305 137 305 176 0
27 -66 120 -403 569 l-218 291 153 48 c162 52 238 82 238 95 0 25 -143 232
-213 309 -35 38 -21 41 -297 -44 -118 -36 -222 -67 -231 -70 -17 -5 -34 16
-168 202 -48 65 -59 75 -85 75 -17 0 -110 -28 -206 -61z m248 -83 c17 -24 28
-46 25 -50 -3 -3 -1 -6 5 -6 6 0 33 -30 61 -67 27 -38 58 -79 69 -92 l19 -24
144 46 c148 46 256 79 321 95 33 9 39 7 62 -17 37 -39 116 -163 116 -182 0
-14 -38 -30 -171 -73 -94 -31 -177 -56 -185 -56 -44 0 -36 -12 341 -525 113
-154 221 -300 240 -325 18 -24 31 -48 28 -53 -13 -22 -237 -112 -254 -101 -6
3 -67 74 -136 158 -69 83 -132 160 -141 171 -14 16 -119 144 -231 280 -9 11
-38 46 -64 77 -29 34 -46 62 -41 69 4 7 3 9 -4 6 -5 -4 -36 24 -69 62 -32 38
-63 72 -69 74 -6 3 -90 -26 -188 -64 -97 -37 -189 -70 -204 -71 -24 -3 -34 7
-84 82 -31 47 -53 88 -50 91 4 3 73 24 153 47 180 51 199 58 199 74 0 7 -19
43 -43 79 -113 176 -148 239 -145 257 2 12 34 25 118 48 63 18 122 33 131 33
8 1 30 -19 47 -43z"/>
<path d="M330 3548 c-21 -34 -21 -32 37 -104 27 -33 274 -340 377 -468 17 -21
43 -53 57 -70 14 -17 99 -123 190 -236 90 -113 172 -214 181 -225 157 -189
426 -530 422 -537 -3 -5 -1 -7 4 -6 5 2 40 -35 78 -82 38 -47 71 -87 74 -90 4
-3 33 -39 66 -80 92 -117 99 -123 123 -115 11 3 25 14 31 24 9 17 -89 147
-363 482 -16 19 -34 41 -40 49 -7 8 -60 74 -117 145 -58 72 -110 137 -117 145
-6 8 -34 42 -61 75 -27 33 -210 258 -406 500 -391 482 -509 625 -513 625 -2 0
-12 -14 -23 -32z"/>
<path d="M289 3214 c-21 -58 -30 -200 -17 -274 8 -43 32 -74 52 -67 6 2 10 51
11 113 1 98 10 199 20 231 4 12 -16 23 -41 23 -8 0 -19 -12 -25 -26z"/>
<path d="M4365 2024 c-27 -8 -57 -16 -65 -18 -56 -16 -750 -251 -772 -262 -27
-14 -47 -58 -34 -71 10 -10 70 7 361 103 143 48 267 88 275 90 8 2 76 24 150
49 74 25 141 43 148 40 7 -3 10 0 7 5 -3 6 -1 10 4 10 6 0 11 16 11 35 0 40
-7 42 -85 19z"/>
<path d="M4035 1625 c-403 -141 -761 -273 -832 -306 -29 -14 -45 -29 -52 -51
-23 -66 -30 -67 456 108 545 196 673 246 673 265 0 20 -32 49 -51 48 -8 -1
-95 -30 -194 -64z"/>
<path d="M3275 1548 c-112 -38 -280 -99 -430 -158 -82 -32 -190 -74 -240 -93
-249 -97 -298 -116 -395 -158 -68 -29 -68 -28 -73 -60 -9 -50 3 -49 151 10 78
32 142 56 142 53 0 -2 7 1 15 8 18 15 29 7 31 -23 14 -208 23 -270 44 -291 8
-8 37 16 110 93 l99 104 68 -11 c37 -6 93 -13 123 -14 l55 -3 -1 85 c0 47 -3
126 -7 176 l-7 90 48 15 c26 9 122 42 215 73 172 60 178 65 161 110 -8 21 -35
19 -109 -6z m-396 -260 c12 -32 14 -198 3 -198 -5 0 -42 7 -81 16 -39 9 -81
14 -93 10 -13 -3 -47 -35 -77 -71 -29 -35 -56 -63 -60 -61 -3 2 -6 52 -6 111
l0 107 140 53 c77 30 146 54 153 54 7 1 16 -9 21 -21z"/>
</g>
</svg>
